.
 
http://www.scenetime.com    -   SceneTime [ We been having it ] !!!


How come you press harder on a remote control when you know the battery is dead? so you better seed to get speed ;)

        Seed back for speed


...................................NFO:.................................................####################################################################################################
####################################################################################################
##                                                                                                ##
##                                                                                                ##
##   #######                                                #######                               ##
##      #     ####  #####  #####  ###### #    # #####       #        ####  #####   ####  ######   ##
##      #    #    # #    # #    # #      ##   #   #         #       #    # #    # #    # #        ##
##      #    #    # #    # #    # #####  # #  #   #   ##### #####   #    # #    # #      #####    ##
##      #    #    # #####  #####  #      #  # #   #         #       #    # #####  #      #        ##
##      #    #    # #   #  #   #  #      #   ##   #         #       #    # #   #  #    # #        ##
##      #     ####  #    # #    # ###### #    #   #         #        ####  #    #  ####  ######   ##
##                                                                                                ##
##                                                                                                ##
####################################################################################################
####################################################################################################


General
Complete name                    : House Of The Rising Sun 2011 720p BRRip XviD (avi) [TFRG].avi
Format                           : AVI
Format/Info                      : Audio Video Interleave
File size                        : 1.23 GiB
Duration                         : 1h 27mn
Overall bit rate                 : 2008 Kbps
Writing library                  : VirtualDub build 32842/release

Video
ID                               : 0
Format                           : MPEG-4 Visual
Format profile                   : Simple@L6
Format settings, BVOP            : No
Format settings, QPel            : No
Format settings, GMC             : No warppoints
Format settings, Matrix          : Default (H.263)
Codec ID                         : XVID
Codec ID/Hint                    : XviD
Duration                         : 1h 27mn
Bit rate                         : 1838 Kbps
Width                            : 1280 pixels
Height                           : 720 pixels
Display aspect ratio             : 16:9
Frame rate                       : 23.976 fps
Color space                      : YUV
Chroma subsampling               : 4:2:0
Bit depth                        : 8 bits
Scan type                        : Progressive
Compression mode                 : Lossy
Bits/(Pixel*Frame)               : 0.083
Stream size                      : 1.12 GiB (92%)
Writing library                  : XviD 64

Audio
ID                               : 1
Format                           : MPEG Audio
Format version                   : Version 1
Format profile                   : Layer 3
Mode                             : Joint stereo
Mode extension                   : MS Stereo
Codec ID                         : 55
Codec ID/Hint                    : MP3
Duration                         : 1h 27mn
Bit rate mode                    : Constant
Bit rate                         : 160 Kbps
Channel(s)                       : 2 channels
Sampling rate                    : 48.0 KHz
Compression mode                 : Lossy
Stream size                      : 100 MiB (8%)
Alignment                        : Split accross interleaves
Interleave, duration             : 42 ms (1.00 video frame)
Interleave, preload duration     : 500 ms
Writing library                  : LAME3.98r
Encoding settings                : -m j -V 4 -q 2 -lowpass 17.5 -b 160




####################################################################################################
####################################################################################################
##                                                                                                ##
##                                                                                                ##
##                                                                                                ##
##                                                    #    #####   #####   #####                  ##
##                 #    # ######  ####  ##### #   #  ##   #     # #     # #     #                 ##
##                 #    # #      #        #    # #  # #   #     # #     #       #                 ##
##                 #    # #####   ####    #     #     #    ######  #####   #####                  ##
##                 # ## # #           #   #     #     #         # #     #       #                 ##
##                 ##  ## #      #    #   #     #     #   #     # #     # #     #                 ##
##                 #    # ######  ####    #     #   #####  #####   #####   #####                  ##
##                                                                                                ##
##                                                                                                ##
##               ####  #####  ###### #   #  ####  #    #   ##   #####   ####  #    #              ##
##              #    # #    # #       # #  #      #    #  #  #  #    # #    # #    #              ##
##              #      #    # #####    #    ####  ###### #    # #    # #    # #    #              ##
##              #  ### #####  #        #        # #    # ###### #    # #    # # ## #              ##
##              #    # #   #  #        #   #    # #    # #    # #    # #    # ##  ##              ##
##               ####  #    # ######   #    ####  #    # #    # #####   ####  #    #              ##
##                                                                                                ##
##                                                                        #    #####              ##
##              #    # #    # # ##### ######  ####  #####   ##    ####   ##   #     #             ##
##              #    # #    # #   #   #      #        #    #  #  #    # # #         #             ##
##              #    # ###### #   #   #####   ####    #   #    # #        #    #####              ##
##              # ## # #    # #   #   #           #   #   ###### #  ###   #         #             ##
##              ##  ## #    # #   #   #      #    #   #   #    # #    #   #   #     #             ##
##              #    # #    # #   #   ######  ####    #   #    #  ####  #####  #####              ##
##                                                                                                ##
##                                                                                                ##
##                                                                                                ##
####################################################################################################
####################################################################################################